<?xml version="1.0" encoding="UTF-8"?>
<svg xmlns="http://www.w3.org/2000/svg" xmlns:xlink="http://www.w3.org/1999/xlink" version="1.1" id="Capa_1" x="0px" y="0px" viewBox="0 0 512 512" style="enable-background:new 0 0 512 512;" xml:space="preserve" width="512" height="512">
<g>
	<g>
		<g>
			
				<line style="fill:none;stroke:#000000;stroke-width:15;stroke-linecap:round;stroke-linejoin:round;" x1="451.972" y1="264.081" x2="451.972" y2="258.081"/>
			
				<line style="fill:none;stroke:#000000;stroke-width:15;stroke-linecap:round;stroke-linejoin:round;stroke-dasharray:10.7199,28.5865;" x1="451.972" y1="229.495" x2="451.972" y2="165.175"/>
			
				<line style="fill:none;stroke:#000000;stroke-width:15;stroke-linecap:round;stroke-linejoin:round;" x1="451.972" y1="150.882" x2="451.972" y2="144.882"/>
		</g>
	</g>
	<g>
		<g>
			
				<line style="fill:none;stroke:#000000;stroke-width:15;stroke-linecap:round;stroke-linejoin:round;" x1="60.028" y1="264.081" x2="60.028" y2="258.081"/>
			
				<line style="fill:none;stroke:#000000;stroke-width:15;stroke-linecap:round;stroke-linejoin:round;stroke-dasharray:10.7199,28.5865;" x1="60.028" y1="229.495" x2="60.028" y2="165.175"/>
			
				<line style="fill:none;stroke:#000000;stroke-width:15;stroke-linecap:round;stroke-linejoin:round;" x1="60.028" y1="150.882" x2="60.028" y2="144.882"/>
		</g>
	</g>
	<g>
		<g>
			
				<line style="fill:none;stroke:#000000;stroke-width:15;stroke-linecap:round;stroke-linejoin:round;" x1="431.768" y1="284.285" x2="425.768" y2="284.285"/>
			
				<line style="fill:none;stroke:#000000;stroke-width:15;stroke-linecap:round;stroke-linejoin:round;stroke-dasharray:11.9836,31.9564;" x1="393.812" y1="284.285" x2="102.21" y2="284.285"/>
			
				<line style="fill:none;stroke:#000000;stroke-width:15;stroke-linecap:round;stroke-linejoin:round;" x1="86.232" y1="284.285" x2="80.232" y2="284.285"/>
		</g>
	</g>
	<g>
		<g>
			
				<line style="fill:none;stroke:#000000;stroke-width:15;stroke-linecap:round;stroke-linejoin:round;" x1="431.768" y1="124.679" x2="425.768" y2="124.679"/>
			
				<line style="fill:none;stroke:#000000;stroke-width:15;stroke-linecap:round;stroke-linejoin:round;stroke-dasharray:11.9836,31.9564;" x1="393.812" y1="124.679" x2="102.21" y2="124.679"/>
			
				<line style="fill:none;stroke:#000000;stroke-width:15;stroke-linecap:round;stroke-linejoin:round;" x1="86.232" y1="124.679" x2="80.232" y2="124.679"/>
		</g>
	</g>
	<path style="fill:none;stroke:#000000;stroke-width:15;stroke-linecap:round;stroke-linejoin:round;stroke-miterlimit:10;" d="&#10;&#9;&#9;M161.9,7.5h328.46c7.81,0,14.14,6.33,14.14,14.14v133.015"/>
	<path style="fill:none;stroke:#000000;stroke-width:15;stroke-linecap:round;stroke-linejoin:round;stroke-miterlimit:10;" d="&#10;&#9;&#9;M7.5,314.51V21.64c0-7.81,6.33-14.14,14.14-14.14H126.9"/>
	<path style="fill:none;stroke:#000000;stroke-width:15;stroke-linecap:round;stroke-linejoin:round;stroke-miterlimit:10;" d="&#10;&#9;&#9;M7.5,349.51v51.95c0,7.81,6.33,14.15,14.14,14.15H343.4"/>
	<path style="fill:none;stroke:#000000;stroke-width:15;stroke-linecap:round;stroke-linejoin:round;stroke-miterlimit:10;" d="&#10;&#9;&#9;M504.5,189.658V401.46c0,7.81-6.33,14.15-14.14,14.15h-40.641"/>
	
		<line style="fill:none;stroke:#000000;stroke-width:15;stroke-linecap:round;stroke-linejoin:round;stroke-miterlimit:10;" x1="7.5" y1="72.15" x2="504.5" y2="72.15"/>
	
		<line style="fill:none;stroke:#000000;stroke-width:15;stroke-linecap:round;stroke-linejoin:round;stroke-miterlimit:10;" x1="43.866" y1="39.825" x2="43.866" y2="39.825"/>
	
		<line style="fill:none;stroke:#000000;stroke-width:15;stroke-linecap:round;stroke-linejoin:round;stroke-miterlimit:10;" x1="78.211" y1="39.825" x2="78.211" y2="39.825"/>
	
		<line style="fill:none;stroke:#000000;stroke-width:15;stroke-linecap:round;stroke-linejoin:round;stroke-miterlimit:10;" x1="112.557" y1="39.825" x2="112.557" y2="39.825"/>
	<g>
		<g>
			
				<polyline style="fill:none;stroke:#000000;stroke-width:15;stroke-linecap:round;stroke-linejoin:round;stroke-miterlimit:10;" points="&#10;&#9;&#9;&#9;&#9;222.743,236.807 248.264,172.157 273.786,236.807 &#9;&#9;&#9;"/>
			
				<line style="fill:none;stroke:#000000;stroke-width:15;stroke-linecap:round;stroke-linejoin:round;stroke-miterlimit:10;" x1="230.314" y1="220.932" x2="266.337" y2="220.932"/>
		</g>
		<g>
			
				<polyline style="fill:none;stroke:#000000;stroke-width:15;stroke-linecap:round;stroke-linejoin:round;stroke-miterlimit:10;" points="&#10;&#9;&#9;&#9;&#9;299.505,236.807 299.505,172.277 344.808,236.807 344.808,172.157 &#9;&#9;&#9;"/>
		</g>
		<g>
			<path style="fill:none;stroke:#000000;stroke-width:15;stroke-linecap:round;stroke-linejoin:round;stroke-miterlimit:10;" d="&#10;&#9;&#9;&#9;&#9;M414.632,204.482c0,17.813-9.887,31.909-25.572,32.183c-5.221,0.091-18.715,0.142-18.715,0.142l-0.131-64.65c0,0,12.14,0,18.31,0&#10;&#9;&#9;&#9;&#9;C405.728,172.157,414.632,186.668,414.632,204.482z"/>
		</g>
		<g>
			<path style="fill:none;stroke:#000000;stroke-width:15;stroke-linecap:round;stroke-linejoin:round;stroke-miterlimit:10;" d="&#10;&#9;&#9;&#9;&#9;M131.024,187.033c0,8.216-6.66,14.876-14.876,14.876c-4.075,0-18.779,0.066-18.779,0.066v-29.818c0,0,13.965,0,18.779,0&#10;&#9;&#9;&#9;&#9;C124.364,172.157,131.024,178.817,131.024,187.033z"/>
			<path style="fill:none;stroke:#000000;stroke-width:15;stroke-linecap:round;stroke-linejoin:round;stroke-miterlimit:10;" d="&#10;&#9;&#9;&#9;&#9;M136.829,219.328c0,9.611-7.791,17.402-17.402,17.402c-4.766,0-22.059,0.077-22.059,0.077v-34.881c0,0,16.427,0,22.059,0&#10;&#9;&#9;&#9;&#9;C129.038,201.926,136.829,209.717,136.829,219.328z"/>
		</g>
		<g>
			
				<line style="fill:none;stroke:#000000;stroke-width:15;stroke-linecap:round;stroke-linejoin:round;stroke-miterlimit:10;" x1="170.162" y1="205.951" x2="197.319" y2="236.807"/>
			
				<line style="fill:none;stroke:#000000;stroke-width:15;stroke-linecap:round;stroke-linejoin:round;stroke-miterlimit:10;" x1="162.366" y1="205.835" x2="162.366" y2="236.807"/>
			<path style="fill:none;stroke:#000000;stroke-width:15;stroke-linecap:round;stroke-linejoin:round;stroke-miterlimit:10;" d="&#10;&#9;&#9;&#9;&#9;M197.319,188.958c0,9.279-8.137,16.802-17.753,16.802c-4.769,0-17.201,0.074-17.201,0.074l0.021-33.678c0,0,11.545,0,17.18,0&#10;&#9;&#9;&#9;&#9;C189.183,172.157,197.319,179.679,197.319,188.958z"/>
		</g>
	</g>
	<path style="fill:none;stroke:#000000;stroke-width:15;stroke-linecap:round;stroke-linejoin:round;stroke-miterlimit:10;" d="&#10;&#9;&#9;M466.114,144.882h-28.285c-3.347,0-6.061-2.714-6.061-6.061v-28.285c0-3.347,2.714-6.061,6.061-6.061h28.285&#10;&#9;&#9;c3.347,0,6.061,2.714,6.061,6.061v28.285C472.175,142.169,469.461,144.882,466.114,144.882z"/>
	<path style="fill:none;stroke:#000000;stroke-width:15;stroke-linecap:round;stroke-linejoin:round;stroke-miterlimit:10;" d="&#10;&#9;&#9;M74.171,144.882H45.886c-3.347,0-6.061-2.714-6.061-6.061v-28.285c0-3.347,2.714-6.061,6.061-6.061h28.285&#10;&#9;&#9;c3.347,0,6.061,2.714,6.061,6.061v28.285C80.232,142.169,77.518,144.882,74.171,144.882z"/>
	<path style="fill:none;stroke:#000000;stroke-width:15;stroke-linecap:round;stroke-linejoin:round;stroke-miterlimit:10;" d="&#10;&#9;&#9;M466.114,304.488h-28.285c-3.347,0-6.061-2.714-6.061-6.061v-28.285c0-3.347,2.714-6.061,6.061-6.061h28.285&#10;&#9;&#9;c3.347,0,6.061,2.714,6.061,6.061v28.285C472.175,301.774,469.461,304.488,466.114,304.488z"/>
	<path style="fill:none;stroke:#000000;stroke-width:15;stroke-linecap:round;stroke-linejoin:round;stroke-miterlimit:10;" d="&#10;&#9;&#9;M74.171,304.488H45.886c-3.347,0-6.061-2.714-6.061-6.061v-28.285c0-3.347,2.714-6.061,6.061-6.061h28.285&#10;&#9;&#9;c3.347,0,6.061,2.714,6.061,6.061v28.285C80.232,301.774,77.518,304.488,74.171,304.488z"/>
	<path style="fill:none;stroke:#000000;stroke-width:15;stroke-linecap:round;stroke-linejoin:round;stroke-miterlimit:10;" d="&#10;&#9;&#9;M415.277,344.403l-91.848-34.945c-3.986-1.517-8.491-0.552-11.507,2.464s-3.98,7.521-2.464,11.507l34.945,91.848&#10;&#9;&#9;c2.109,5.543,7.451,9.181,13.381,9.112l40.98-0.473l25.153-25.153l0.473-40.98C424.458,351.854,420.819,346.512,415.277,344.403z&#10;&#9;&#9; M386.208,386.208c-6.312,6.312-16.545,6.312-22.857,0c-6.312-6.312-6.312-16.545,0-22.857s16.546-6.312,22.857,0&#10;&#9;&#9;C392.52,369.663,392.52,379.896,386.208,386.208z"/>
	
		<line style="fill:none;stroke:#000000;stroke-width:15;stroke-linecap:round;stroke-linejoin:round;stroke-miterlimit:10;" x1="311.922" y1="311.922" x2="363.351" y2="363.351"/>
	
		<line style="fill:none;stroke:#000000;stroke-width:15;stroke-linecap:round;stroke-linejoin:round;stroke-miterlimit:10;" x1="418.764" y1="446.774" x2="450.775" y2="504.5"/>
	
		<line style="fill:none;stroke:#000000;stroke-width:15;stroke-linecap:round;stroke-linejoin:round;stroke-miterlimit:10;" x1="504.5" y1="450.775" x2="446.774" y2="418.764"/>
	<path style="fill:none;stroke:#000000;stroke-width:15;stroke-linecap:round;stroke-linejoin:round;stroke-miterlimit:10;" d="&#10;&#9;&#9;M397.335,425.345l28.01-28.01c3.156-3.156,8.273-3.156,11.429,0l10,10c3.156,3.156,3.156,8.273,0,11.429l-28.01,28.01&#10;&#9;&#9;c-3.156,3.156-8.273,3.156-11.429,0l-10-10C394.179,433.618,394.179,428.501,397.335,425.345z"/>
</g>















</svg>
