<?xml version="1.0" encoding="UTF-8"?>
<svg xmlns="http://www.w3.org/2000/svg" xmlns:xlink="http://www.w3.org/1999/xlink" version="1.1" id="Capa_1" x="0px" y="0px" viewBox="0 0 512.003 512.003" style="enable-background:new 0 0 512.003 512.003;" xml:space="preserve" width="512" height="512">
<g>
	<g>
		<path style="fill:none;stroke:#000000;stroke-width:15;stroke-linecap:round;stroke-linejoin:round;stroke-miterlimit:10;" d="&#10;&#9;&#9;&#9;M504.252,329.97H7.751V35.8c0-15.63,12.67-28.3,28.3-28.3h439.902c15.63,0,28.3,12.67,28.3,28.3V329.97z"/>
		<path style="fill:none;stroke:#000000;stroke-width:15;stroke-linecap:round;stroke-linejoin:round;stroke-miterlimit:10;" d="&#10;&#9;&#9;&#9;M475.952,407.864H36.05c-15.63,0-28.3-12.67-28.3-28.3V329.97h496.501v49.595C504.252,395.194,491.582,407.864,475.952,407.864z"/>
		
			<polyline style="fill:none;stroke:#000000;stroke-width:15;stroke-linecap:round;stroke-linejoin:round;stroke-miterlimit:10;" points="&#10;&#9;&#9;&#9;309.764,471.101 309.764,504.503 202.236,504.503 202.236,407.864 309.764,407.864 309.764,435.879 &#9;&#9;"/>
		
			<line style="fill:none;stroke:#000000;stroke-width:15;stroke-linecap:round;stroke-linejoin:round;stroke-miterlimit:10;" x1="165.795" y1="504.348" x2="346.205" y2="504.348"/>
		
			<line style="fill:none;stroke:#000000;stroke-width:15;stroke-linecap:round;stroke-linejoin:round;stroke-miterlimit:10;" x1="241.03" y1="368.917" x2="270.973" y2="368.917"/>
		<path style="fill:none;stroke:#000000;stroke-width:15;stroke-linecap:round;stroke-linejoin:round;stroke-miterlimit:10;" d="&#10;&#9;&#9;&#9;M254.349,227.953c-19.823,31.906-55.188,53.149-95.514,53.149c-62.059,0-112.367-50.308-112.367-112.367&#10;&#9;&#9;&#9;c0-25.34,8.388-48.72,22.538-67.517"/>
		<path style="fill:none;stroke:#000000;stroke-width:15;stroke-linecap:round;stroke-linejoin:round;stroke-miterlimit:10;" d="&#10;&#9;&#9;&#9;M93.827,77.071c18.35-13.038,40.784-20.703,65.008-20.703c40.855,0,76.617,21.803,96.286,54.409"/>
		<g>
			<g>
				
					<line style="fill:none;stroke:#000000;stroke-width:15;stroke-linecap:round;stroke-linejoin:round;stroke-miterlimit:10;" x1="199.925" y1="135.245" x2="199.925" y2="202.224"/>
			</g>
			<g>
				<path style="fill:none;stroke:#000000;stroke-width:15;stroke-linecap:round;stroke-linejoin:round;stroke-miterlimit:10;" d="&#10;&#9;&#9;&#9;&#9;&#9;M117.745,135.245v46.089c0,7.849,3.893,13.133,10.508,17.359c3.221,2.058,7.29,3.524,12.346,3.531&#10;&#9;&#9;&#9;&#9;&#9;c4.379,0.006,8.038-1.008,11.064-2.532c7.708-3.882,12.623-9.776,12.623-18.407v-46.041"/>
			</g>
		</g>
		
			<circle style="fill:none;stroke:#000000;stroke-width:15;stroke-linecap:round;stroke-linejoin:round;stroke-miterlimit:10;" cx="353.165" cy="168.735" r="112.367"/>
		<g>
			<g>
				
					<line style="fill:none;stroke:#000000;stroke-width:15;stroke-linecap:round;stroke-linejoin:round;stroke-miterlimit:10;" x1="368.876" y1="135.245" x2="415.995" y2="202.224"/>
				
					<line style="fill:none;stroke:#000000;stroke-width:15;stroke-linecap:round;stroke-linejoin:round;stroke-miterlimit:10;" x1="412.679" y1="135.245" x2="365.494" y2="202.224"/>
			</g>
			<g>
				<path style="fill:none;stroke:#000000;stroke-width:15;stroke-linecap:round;stroke-linejoin:round;stroke-miterlimit:10;" d="&#10;&#9;&#9;&#9;&#9;&#9;M290.336,135.245v46.089c0,7.849,3.893,13.133,10.508,17.359c3.221,2.058,7.29,3.524,12.346,3.531&#10;&#9;&#9;&#9;&#9;&#9;c4.379,0.006,8.038-1.008,11.064-2.532c7.708-3.882,12.623-9.776,12.623-18.407v-46.041"/>
			</g>
		</g>
	</g>
</g>















</svg>
