<svg height="512" viewBox="0 0 96 96" width="512" xmlns="http://www.w3.org/2000/svg"><g id="Layer_4"><g><path d="m72.718 8.431h-50.349c-8.058 0-14.369 6.261-14.369 14.254v28.615c0 8.003 6.311 14.273 14.369 14.273h6.202c1.262 0 2.286-1.023 2.286-2.286 0-1.262-1.023-2.286-2.286-2.286h-6.202c-5.494 0-9.798-4.261-9.798-9.702v-28.614c0-5.43 4.304-9.683 9.798-9.683h50.348c5.806 0 10.711 4.434 10.711 9.683v6.317c0 1.262 1.023 2.286 2.286 2.286s2.286-1.023 2.286-2.286v-6.317c0-7.726-6.999-14.254-15.282-14.254z"/><path d="m44.737 50.089 11.925-9.297c1.294-.962 2.067-2.472 2.067-4.04 0-1.422-.647-2.72-1.757-3.544l-12.277-9.344c-.827-.615-1.762-.94-2.704-.94-2.398 0-4.277 2.083-4.277 4.74v18.656c0 2.657 1.878 4.74 4.277 4.74.942 0 1.877-.325 2.746-.971zm-2.451-22.314 11.871 8.971c.007.058-.048.25-.263.41l-11.607 9.037v-18.418z"/><path d="m78.959 65.808c4.602 0 8.346-3.744 8.346-8.347s-3.744-8.347-8.346-8.347-8.346 3.744-8.346 8.347c0 .442.064.867.131 1.291l-12.129 7.314-13.718-8.271c-1.083-.653-2.487-.305-3.138.777-.652 1.08-.304 2.485.777 3.137l11.653 7.027-11.653 7.027c-1.08.652-1.429 2.056-.777 3.137.43.712 1.185 1.106 1.96 1.106.402 0 .809-.106 1.179-.329l13.718-8.271 12.054 7.268c-.012.185-.056.362-.056.549 0 4.603 3.744 8.347 8.346 8.347s8.346-3.744 8.346-8.347c0-4.602-3.744-8.346-8.346-8.346-2.752 0-5.178 1.356-6.699 3.417l-9.218-5.558 9.652-5.82c1.529 1.756 3.756 2.892 6.264 2.892zm0-12.123c2.081 0 3.775 1.694 3.775 3.776s-1.693 3.776-3.775 3.776c-2.081 0-3.775-1.694-3.775-3.776s1.693-3.776 3.775-3.776zm0 21.763c2.081 0 3.775 1.693 3.775 3.775s-1.693 3.776-3.775 3.776c-2.081 0-3.775-1.694-3.775-3.776s1.693-3.775 3.775-3.775z"/></g></g></svg>