<?xml version="1.0" encoding="UTF-8"?>
<svg id="Layer_2" data-name="Layer 2" xmlns="http://www.w3.org/2000/svg" viewBox="0 0 1007.1 336.6">
  <defs>
    <style>
      .cls-1 {
        fill: #d9ff43;
      }

      .cls-1, .cls-2 {
        stroke-width: 0px;
      }

      .cls-2 {
        fill: #000;
      }
    </style>
  </defs>
  <g id="Layer_1-2" data-name="Layer 1">
    <path class="cls-1" d="m206.8,246.9h-44.7l32.5,38h20.1c7.7,0,15.2-.9,22.6-2.5l-30.4-35.5ZM348.8,29.5c-12.9-18.5-34.1-29.5-56.7-29.5H103.7L0,284.9h181.4l-32.5-38H54.3L130.3,38h161.8c10.2,0,19.5,4.8,25.4,13.1,0,0,.1.2.2.3,5.9,8.5,7.3,18.9,3.8,28.6l-7.6,20.9-6.4,17.5h23.1l-14.6,49.7h-26.7l-2.4,6.6-5.5,15-5.1,14c-8.8,24.3-31.2,41.1-56.7,43.1l28,32.7c29.3-9.9,53.4-32.7,64.4-62.8l45-123.7c7.7-21.2,4.6-44.9-8.4-63.4Zm-45,98.7l-10.8,29.7h15.5l8.7-29.7h-13.4Z"/>
    <g>
      <path class="cls-1" d="m287,174.6c-1.4,5.4-3.2,10.4-5.5,15l5.5-15Z"/>
      <path class="cls-1" d="m317.3,128.2l-8.7,29.7h-28.8c-2.3,22.4-11.2,39.3-26.7,50.6-15.5,11.3-37.1,17-64.7,17l18.3,21.4,30.4,35.5,44.6,51.9v2.3h-43l-44.2-51.7-32.5-38-23.6-27.6-.2-23.5h47.1c15.8-.1,28.6-3.6,38.4-10.3,9.9-6.8,16.1-15.9,18.7-27.5h-109.6l8.7-29.7h100.5c-6.1-24-24.6-36.5-55.6-37.5h-53.2l8.9-29.7h175l-8.7,29.7h-44.7c8.1,10.2,13.2,22.7,15.3,37.5h38Z"/>
      <path class="cls-1" d="m317.7,51.3c0,0-.1-.2-.2-.3h13.1l-14.6,49.7h-2.2l7.6-20.9c3.5-9.7,2.2-20.1-3.8-28.6Z"/>
      <path class="cls-1" d="m279.3,128.2c-2.2-14.8-7.3-27.2-15.3-37.5h44.7l8.7-29.7h-175l-8.9,29.7h53.2c31,1,49.6,13.5,55.6,37.5h-100.5l-8.7,29.7h109.6c-2.6,11.6-8.9,20.8-18.7,27.5-9.8,6.8-22.6,10.2-38.4,10.3h-47.1l.2,23.5,23.6,27.6,32.5,38,44.2,51.7h43v-2.3l-44.6-51.9-30.4-35.5-18.3-21.4c27.6,0,49.2-5.7,64.7-17,15.5-11.3,24.4-28.2,26.7-50.6h28.8l8.7-29.7h-38Z"/>
    </g>
    <g>
      <path class="cls-2" d="m404.8,121.7L428.9,1.2h48.7c12.3,0,22.8,2,31.5,6.1,8.7,4.1,15.4,9.8,20.1,17.2,4.6,7.4,7,16.2,7,26.4s-1.8,20.4-5.4,29.1c-3.6,8.7-8.7,16.2-15.3,22.4-6.6,6.2-14.5,11-23.7,14.3-9.2,3.3-19.3,5-30.5,5h-56.5Zm26.2-18.9h30.8c10.8,0,20.1-2.2,27.8-6.6,7.7-4.4,13.7-10.4,17.8-18,4.1-7.6,6.2-16.2,6.2-25.8s-1.4-12.2-4.3-17c-2.9-4.8-7.1-8.5-12.8-11.2-5.7-2.6-12.8-4-21.3-4h-27.9l-16.4,82.6Z"/>
      <path class="cls-2" d="m544.9,121.7l18.2-91.9h20.5l-5.2,26.2-1.9-7.6c4.2-7.3,9.7-12.5,16.3-15.4,6.6-2.9,14.5-4.4,23.8-4.4l-4,20.5c-.8-.1-1.6-.2-2.5-.3-.9,0-1.8,0-2.8,0-8.4,0-15.3,2.2-20.8,6.6-5.5,4.4-9.2,11.4-11.2,21.1l-8.9,45.3h-21.5Z"/>
      <path class="cls-2" d="m663.5,122.9c-9.3,0-17.3-1.7-24.1-5.1-6.8-3.4-12-8.1-15.7-14.1-3.7-6-5.6-13.1-5.6-21.3s2.3-19.8,6.9-27.9c4.6-8,10.8-14.4,18.8-19,7.9-4.6,17-7,27.2-7s16.1,1.7,22.5,5c6.4,3.3,11.3,8,14.8,13.9,3.5,6,5.3,13.1,5.3,21.3s-.1,4.7-.4,6.9c-.3,2.2-.6,4.3-.9,6.4h-78l2.4-14.3h65.4l-8.8,4.8c.9-5.9.5-10.7-1.2-14.6-1.7-3.9-4.5-6.9-8.3-9-3.8-2.1-8.3-3.1-13.6-3.1s-11.8,1.5-16.4,4.5c-4.6,3-8.2,7.1-10.8,12.4-2.5,5.3-3.8,11.5-3.8,18.6s2.2,13.2,6.5,17.3c4.3,4.1,11,6.1,20.1,6.1s10.1-.9,14.8-2.6c4.7-1.7,8.6-4.1,11.7-7.1l9,15c-4.8,4.2-10.6,7.4-17.2,9.6-6.7,2.1-13.4,3.2-20.3,3.2Z"/>
      <path class="cls-2" d="m765.2,122.9c-7.5,0-14.3-1.6-20.4-4.8-6.1-3.2-11-7.8-14.6-13.9-3.6-6-5.4-13.3-5.4-21.9s1.3-14.8,3.9-21.3c2.6-6.5,6.2-12.2,10.9-17.1,4.7-4.9,10.2-8.6,16.5-11.3,6.3-2.6,13.1-4,20.3-4s14.5,1.4,20,4.2c5.5,2.8,9.7,7,12.6,12.6,2.9,5.6,4.3,12.5,4,20.7-.2,11.4-2.3,21.3-6.1,29.9-3.8,8.5-9.3,15.2-16.4,19.9-7.1,4.7-15.5,7.1-25.3,7.1Zm5.5-18.4c6.1,0,11.5-1.5,16.3-4.4,4.8-2.9,8.5-7,11.3-12.1s4.1-11.1,4.1-17.9-2.1-12.7-6.4-16.9c-4.2-4.1-10.3-6.2-18.1-6.2s-11.4,1.5-16.2,4.4c-4.8,2.9-8.6,7-11.3,12.1-2.7,5.2-4,11.1-4,17.9s2.1,12.7,6.4,16.9c4.2,4.1,10.2,6.2,17.9,6.2Zm22.5,17.2l4.1-21,5.9-24.3,2.9-24.8,4.3-21.9h21.7l-18.4,91.9h-20.5Z"/>
      <path class="cls-2" d="m973.8,28.5c8,0,14.7,1.6,20.1,4.8,5.4,3.2,9.2,8,11.4,14.4,2.2,6.4,2.4,14,.7,23l-10.3,50.9h-21.5l10-50.4c1.6-7.5,1.1-13.3-1.6-17.5-2.7-4.2-7.7-6.3-15.1-6.3s-13.4,2.2-18.2,6.5c-4.8,4.3-8.1,10.9-10,19.9l-9.6,47.8h-21.5l10-50.4c1.6-7.5,1-13.3-1.7-17.5-2.8-4.2-7.7-6.3-15-6.3s-13.6,2.2-18.3,6.5c-4.8,4.3-8.1,11-10.1,20.1l-9.5,47.7h-21.5l18.2-91.9h20.5l-5,25.5-3.4-7.6c4.2-6.5,9.5-11.4,15.8-14.5,6.3-3.1,13.3-4.6,20.8-4.6s11.2,1.1,15.8,3.2c4.6,2.1,8.3,5.2,11.1,9.3,2.8,4.1,4.4,9,4.9,14.9l-10.3-2.2c4.8-8.3,10.9-14.5,18.2-18.8,7.3-4.2,15.7-6.4,25.1-6.4Z"/>
      <path class="cls-2" d="m376.6,276.6l24.1-120.5h46.8c14.7,0,26,3.2,33.9,9.6,7.9,6.4,11.9,15.3,11.9,26.8s-2.3,18.7-7,26.1c-4.6,7.4-11.3,13.1-19.9,17-8.6,3.9-18.8,5.9-30.5,5.9h-39.6l11.7-10-8.9,45.3h-22.5Zm31-42.7l-7.6-11h36.5c10.8,0,19.2-2.4,25.2-7.2,6-4.8,9-11.8,9-21s-2.2-11.6-6.7-14.8c-4.5-3.2-10.8-4.8-18.9-4.8h-35.1l11.7-11.2-14.1,70.1Zm48.4,42.7l-24.6-43.7h23.6l24.6,43.7h-23.6Z"/>
      <path class="cls-2" d="m539.6,277.9c-7.6,0-14.1-1.6-19.5-4.8-5.5-3.2-9.3-8-11.6-14.3-2.3-6.3-2.5-14-.7-23.1l10.2-50.9h21.5l-10.2,50.4c-1.4,7.5-.7,13.3,2.2,17.5,2.8,4.2,7.9,6.3,15.2,6.3s14.3-2.2,19.4-6.5c5.2-4.4,8.7-11,10.5-20l9.6-47.7h21.3l-18.2,91.9h-20.5l5.3-26.2,3.4,8.3c-4.5,6.5-10,11.4-16.6,14.5-6.6,3.1-13.7,4.6-21.4,4.6Z"/>
      <path class="cls-2" d="m610.8,310l25-125.3h20.5l-4.1,21-5.7,24.3-2.9,24.8-11.2,55.2h-21.5Zm62.3-32.2c-7.7,0-14.3-1.4-19.9-4.2-5.6-2.8-9.8-7-12.7-12.6-2.9-5.6-4.3-12.5-4-20.7.2-11.5,2.3-21.5,6.2-29.9,3.9-8.5,9.4-15.1,16.4-19.8,7-4.7,15.4-7.1,25.3-7.1s14.4,1.6,20.6,4.8c6.1,3.2,11,7.9,14.5,13.9,3.6,6.1,5.3,13.3,5.3,21.7s-1.3,15-3.9,21.5c-2.6,6.5-6.2,12.2-10.9,17-4.7,4.8-10.2,8.6-16.4,11.3-6.3,2.7-13.1,4-20.4,4Zm-1.7-18.4c6.2,0,11.6-1.5,16.4-4.4,4.7-2.9,8.4-7,11.1-12.1,2.7-5.2,4-11.1,4-17.9s-2.1-12.7-6.2-16.9-10.1-6.2-17.9-6.2-11.5,1.5-16.3,4.4c-4.8,2.9-8.5,7-11.3,12.1-2.8,5.2-4.1,11.1-4.1,17.9s2.1,12.7,6.4,16.9c4.2,4.1,10.2,6.2,17.9,6.2Z"/>
      <path class="cls-2" d="m781.9,277.9c-9.3,0-17.3-1.7-24.1-5.1-6.8-3.4-12-8.1-15.7-14.1-3.7-6-5.6-13.1-5.6-21.3s2.3-19.8,6.9-27.9c4.6-8,10.8-14.4,18.8-19s17-7,27.2-7,16.1,1.7,22.5,5c6.4,3.3,11.3,8,14.8,13.9,3.5,6,5.3,13.1,5.3,21.3s-.1,4.7-.4,6.9c-.3,2.2-.6,4.3-.9,6.4h-78l2.4-14.3h65.4l-8.8,4.8c.9-5.9.5-10.7-1.2-14.6-1.7-3.9-4.5-6.9-8.3-9s-8.3-3.1-13.6-3.1-11.8,1.5-16.4,4.5c-4.6,3-8.2,7.1-10.8,12.4-2.5,5.3-3.8,11.5-3.8,18.6s2.2,13.2,6.5,17.3c4.3,4.1,11,6.1,20.1,6.1s10.1-.9,14.8-2.6c4.7-1.7,8.6-4.1,11.7-7.1l9,15c-4.8,4.2-10.6,7.4-17.2,9.6-6.7,2.1-13.4,3.2-20.3,3.2Z"/>
      <path class="cls-2" d="m888.6,277.9c-9.3,0-17.3-1.7-24.1-5.1-6.8-3.4-12-8.1-15.7-14.1-3.7-6-5.6-13.1-5.6-21.3s2.3-19.8,6.9-27.9c4.6-8,10.8-14.4,18.8-19,7.9-4.6,17-7,27.2-7s16.1,1.7,22.5,5c6.4,3.3,11.3,8,14.8,13.9,3.5,6,5.3,13.1,5.3,21.3s-.1,4.7-.4,6.9c-.3,2.2-.6,4.3-.9,6.4h-78l2.4-14.3h65.4l-8.8,4.8c.9-5.9.5-10.7-1.2-14.6-1.7-3.9-4.5-6.9-8.3-9s-8.3-3.1-13.6-3.1-11.8,1.5-16.4,4.5c-4.6,3-8.2,7.1-10.8,12.4-2.5,5.3-3.8,11.5-3.8,18.6s2.2,13.2,6.5,17.3c4.3,4.1,11,6.1,20.1,6.1s10.1-.9,14.8-2.6c4.7-1.7,8.6-4.1,11.7-7.1l9,15c-4.8,4.2-10.6,7.4-17.2,9.6-6.7,2.1-13.4,3.2-20.3,3.2Z"/>
    </g>
  </g>
</svg>